<?xml version="1.0" encoding="utf-8"?>
<!-- Generator: Adobe Illustrator 17.0.0, SVG Export Plug-In . SVG Version: 6.00 Build 0)  -->
<!DOCTYPE svg PUBLIC "-//W3C//DTD SVG 1.1//EN" "http://www.w3.org/Graphics/SVG/1.1/DTD/svg11.dtd">
<svg version="1.1" id="Capa_1" xmlns="http://www.w3.org/2000/svg" xmlns:xlink="http://www.w3.org/1999/xlink" x="0px" y="0px"
	 width="160px" height="100px" viewBox="253.5 347.5 160 100" enable-background="new 253.5 347.5 160 100" xml:space="preserve">
<g id="fondo" display="none">
	<rect x="196.5" y="303.5" display="inline" width="279" height="189"/>
</g>
<g id="Beegle">
	<g>
		<path fill="#FFFFFF" d="M260.276,365.03c0-0.72,0.576-1.368,1.368-1.368h16.777c8.497,0,15.481,5.833,15.481,13.393
			c0,5.544-4.968,9.577-8.353,11.377c3.816,1.584,9.649,5.112,9.649,11.738c0,8.064-7.129,13.896-15.698,13.896h-17.857
			c-0.792,0-1.368-0.648-1.368-1.368V365.03H260.276z M277.125,384.111c2.736,0,5.041-2.304,5.041-5.185s-2.304-4.896-5.041-4.896
			h-5.617v10.081H277.125z M278.062,403.769c2.808,0,5.185-2.305,5.185-5.256c0-2.881-3.096-5.041-5.905-5.041h-5.833v10.297
			H278.062z"/>
		<path fill="#FFFFFF" d="M306.718,384.544c7.345,0,13.681,5.616,13.681,13.537c0,0.504-0.071,1.44-0.144,1.944
			c-0.071,0.72-0.72,1.225-1.368,1.225h-17.281c0.216,1.943,1.8,4.752,5.545,4.752c1.8,0,3.888-0.864,5.04-1.729
			c0.647-0.504,1.368-0.504,1.8,0l3.601,4.32c0.433,0.576,0.576,1.44-0.071,2.088c-2.521,2.521-6.121,4.105-10.658,4.105
			c-8.568,0-15.049-6.842-15.049-15.122C291.813,391.528,298.221,384.544,306.718,384.544z M310.245,395.632
			c-0.145-1.872-1.943-3.384-3.816-3.384c-1.944,0-3.6,1.512-3.888,3.384H310.245z"/>
		<path fill="#FFFFFF" d="M331.125,384.544c7.346,0,13.682,5.616,13.682,13.537c0,0.504-0.072,1.44-0.145,1.944
			c-0.071,0.72-0.719,1.225-1.367,1.225h-17.281c0.215,1.943,1.8,4.752,5.544,4.752c1.8,0,3.888-0.864,5.04-1.729
			c0.648-0.504,1.369-0.504,1.801,0l3.6,4.32c0.433,0.576,0.576,1.44-0.071,2.088c-2.521,2.521-6.12,4.105-10.657,4.105
			c-8.568,0-15.049-6.842-15.049-15.122C316.221,391.528,322.629,384.544,331.125,384.544z M334.654,395.632
			c-0.145-1.872-1.944-3.384-3.816-3.384c-1.944,0-3.601,1.512-3.889,3.384H334.654z"/>
		<path fill="#FFFFFF" d="M345.453,403.553c0,0-2.089-2.16-2.089-6.553c0-6.697,5.688-12.457,12.673-12.457h13.609
			c0.792,0,1.368,0.576,1.368,1.368v2.952c0,0.504-0.36,1.008-0.792,1.224l-4.176,1.512c0,0,2.736,2.232,2.736,6.984
			c0,5.257-4.825,10.873-12.458,10.873h-5.185c-1.512,0-2.376,0.792-2.376,1.944c0,1.368,1.224,1.943,2.304,1.943h8.641
			c6.77,0,12.386,4.105,12.386,10.514c0,6.912-4.824,12.529-16.201,12.529c-11.161,0-15.05-5.257-15.05-9.793
			c0-4.32,3.601-6.48,4.393-6.912v-0.215c-0.936-0.288-5.545-2.305-5.545-7.992C339.69,405.785,345.453,403.553,345.453,403.553z
			 M355.893,427.962c3.601,0,5.185-1.439,5.185-3.384c0-1.512-1.297-3.024-5.185-3.024c-2.593,0-5.185,0.937-5.185,3.024
			C350.708,426.595,352.438,427.962,355.893,427.962z M356.325,401.393c2.232,0,3.816-1.585,3.816-3.745s-1.584-3.744-3.816-3.744
			c-2.16,0-3.815,1.584-3.815,3.744C352.51,399.808,354.164,401.393,356.325,401.393z"/>
		<path fill="#FFFFFF" d="M369.068,365.03c0-0.72,0.648-1.368,1.367-1.368h7.922c0.719,0,1.367,0.648,1.367,1.368v47.668
			c0,0.72-0.648,1.368-1.367,1.368h-7.922c-0.719,0-1.367-0.648-1.367-1.368V365.03z"/>
		<path fill="#FFFFFF" d="M393.044,384.544c7.344,0,13.681,5.616,13.681,13.537c0,0.504-0.071,1.44-0.144,1.944
			c-0.072,0.72-0.721,1.225-1.368,1.225h-17.282c0.217,1.943,1.801,4.752,5.545,4.752c1.801,0,3.889-0.864,5.041-1.729
			c0.647-0.504,1.367-0.504,1.8,0l3.601,4.32c0.432,0.576,0.576,1.44-0.072,2.088c-2.521,2.521-6.121,4.105-10.657,4.105
			c-8.569,0-15.05-6.842-15.05-15.122C378.138,391.528,384.547,384.544,393.044,384.544z M396.572,395.632
			c-0.144-1.872-1.943-3.384-3.816-3.384c-1.943,0-3.6,1.512-3.888,3.384H396.572z"/>
	</g>
</g>
<g id="_x3E_">
	<path fill="#A3BD31" d="M363.791,358.614h-5.101c-0.939,0-1.7,0.761-1.7,1.7v12.799H344.19c-0.939,0-1.7,0.761-1.7,1.7v5.101
		c0,0.939,0.761,1.7,1.7,1.7h14.499h5.101c0.939,0,1.7-0.761,1.7-1.7v-5.101v-14.499
		C365.491,359.375,364.729,358.614,363.791,358.614z"/>
</g>
</svg>
